<?plantuml 1.2026.2?><svg xmlns="http://www.w3.org/2000/svg" xmlns:xlink="http://www.w3.org/1999/xlink" contentStyleType="text/css" data-diagram-type="DESCRIPTION" height="741px" preserveAspectRatio="none" style="width:2399px;height:741px;background:#0B0F12;" version="1.1" viewBox="0 0 2399 741" width="2399px" zoomAndPan="magnify"><title>&lt;b&gt;06 &#183; CONTR&#212;LEUR&lt;/b&gt; &#8212; r&#233;vision</title><defs/><g><rect fill="#0B0F12" height="741" style="stroke:none;stroke-width:1;" width="2399" x="0" y="0"/><g class="title" data-source-line="4"><text fill="#E7EBF0" font-family="monospace" font-size="14" font-weight="bold" lengthAdjust="spacing" textLength="124.645" x="1092.1429" y="24.9659">06&#160;&#183;&#160;CONTR&#212;LEUR</text><text fill="#E7EBF0" font-family="monospace" font-size="14" font-weight="bold" lengthAdjust="spacing" textLength="73.4192" x="1220.4279" y="24.9659">&#8212;&#160;r&#233;vision</text></g><!--cluster Entr?es--><g class="cluster" data-qualified-name="Entr.es" data-source-line="7" id="ent0002"><path d="M11,102.5979 L59.8323,102.5979 A7.5,7.5 0 0 1 64.8323,107.5979 L71.8323,127.6658 L273,127.6658 A5,5 0 0 1 278,132.6658 L278,424.5979 A5,5 0 0 1 273,429.5979 L11,429.5979 A5,5 0 0 1 6,424.5979 L6,107.5979 A5,5 0 0 1 11,102.5979" fill="#10161C" style="stroke:#303946;stroke-width:1.5;"/><line style="stroke:#303946;stroke-width:1.5;" x1="6" x2="71.8323" y1="127.6658" y2="127.6658"/><text fill="#E7EBF0" font-family="monospace" font-size="14" font-weight="bold" lengthAdjust="spacing" textLength="52.8323" x="10" y="119.5639">Entr&#233;es</text></g><!--cluster controller--><g class="cluster" data-qualified-name="controller" data-source-line="14" id="ent0007"><rect fill="#141A21" height="203" rx="5" ry="5" style="stroke:#303946;stroke-width:1;" width="1930.09" x="436.5" y="172.5979"/><rect fill="#141A21" height="10" style="stroke:#303946;stroke-width:1;" width="15" x="2346.59" y="177.5979"/><rect fill="#141A21" height="2" style="stroke:#303946;stroke-width:1;" width="4" x="2344.59" y="179.5979"/><rect fill="#141A21" height="2" style="stroke:#303946;stroke-width:1;" width="4" x="2344.59" y="183.5979"/><text fill="#E7EBF0" font-family="monospace" font-size="14" font-weight="bold" lengthAdjust="spacing" textLength="75.5927" x="1363.7486" y="200.5639">Contr&#244;leur</text></g><!--cluster Sorties--><g class="cluster" data-qualified-name="Sorties" data-source-line="23" id="ent0014"><path d="M2067.19,407.5979 L2111.4583,407.5979 A7.5,7.5 0 0 1 2116.4583,412.5979 L2123.4583,432.6658 L2387.99,432.6658 A5,5 0 0 1 2392.99,437.6658 L2392.99,729.5979 A5,5 0 0 1 2387.99,734.5979 L2067.19,734.5979 A5,5 0 0 1 2062.19,729.5979 L2062.19,412.5979 A5,5 0 0 1 2067.19,407.5979" fill="#10161C" style="stroke:#303946;stroke-width:1.5;"/><line style="stroke:#303946;stroke-width:1.5;" x1="2062.19" x2="2123.4583" y1="432.6658" y2="432.6658"/><text fill="#E7EBF0" font-family="monospace" font-size="14" font-weight="bold" lengthAdjust="spacing" textLength="48.2683" x="2066.19" y="424.5639">Sorties</text></g><!--entity metrics--><g class="entity" data-qualified-name="Entr.es.metrics" data-source-line="3" id="ent0003"><rect fill="#141A21" height="42.0679" rx="3" ry="3" style="stroke:#566170;stroke-width:0.5;" width="181.1993" x="51.4" y="371.5679"/><polygon fill="#141A21" points="215.5993,376.5679,215.5993,390.5679,227.5993,390.5679,227.5993,382.5679,221.5993,376.5679,215.5993,376.5679" style="stroke:#566170;stroke-width:0.5;"/><line style="stroke:#566170;stroke-width:0.5;" x1="221.5993" x2="221.5993" y1="376.5679" y2="382.5679"/><line style="stroke:#566170;stroke-width:0.5;" x1="227.5993" x2="221.5993" y1="382.5679" y2="382.5679"/><text fill="#E7EBF0" font-family="monospace" font-size="14" lengthAdjust="spacing" textLength="151.1993" x="61.4" y="399.5339">M&#233;triques&#160;du&#160;cycle</text></g><!--entity patterns--><g class="entity" data-qualified-name="Entr.es.patterns" data-source-line="3" id="ent0004"><rect fill="#141A21" height="42.0679" rx="3" ry="3" style="stroke:#566170;stroke-width:0.5;" width="231.5991" x="26.2" y="294.5679"/><polygon fill="#141A21" points="240.7991,299.5679,240.7991,313.5679,252.7991,313.5679,252.7991,305.5679,246.7991,299.5679,240.7991,299.5679" style="stroke:#566170;stroke-width:0.5;"/><line style="stroke:#566170;stroke-width:0.5;" x1="246.7991" x2="246.7991" y1="299.5679" y2="305.5679"/><line style="stroke:#566170;stroke-width:0.5;" x1="252.7991" x2="246.7991" y1="305.5679" y2="305.5679"/><text fill="#E7EBF0" font-family="monospace" font-size="14" lengthAdjust="spacing" textLength="201.5991" x="36.2" y="322.5339">Apprentissages&#160;accumul&#233;s</text></g><!--entity blockers--><g class="entity" data-qualified-name="Entr.es.blockers" data-source-line="3" id="ent0005"><rect fill="#141A21" height="42.0679" rx="3" ry="3" style="stroke:#566170;stroke-width:0.5;" width="189.5993" x="47.2" y="217.5679"/><polygon fill="#141A21" points="219.7993,222.5679,219.7993,236.5679,231.7993,236.5679,231.7993,228.5679,225.7993,222.5679,219.7993,222.5679" style="stroke:#566170;stroke-width:0.5;"/><line style="stroke:#566170;stroke-width:0.5;" x1="225.7993" x2="225.7993" y1="222.5679" y2="228.5679"/><line style="stroke:#566170;stroke-width:0.5;" x1="231.7993" x2="225.7993" y1="228.5679" y2="228.5679"/><text fill="#E7EBF0" font-family="monospace" font-size="14" lengthAdjust="spacing" textLength="159.5993" x="57.2" y="245.5339">Blocages&#160;r&#233;currents</text></g><!--entity outcome--><g class="entity" data-qualified-name="Entr.es.outcome" data-source-line="3" id="ent0006"><rect fill="#141A21" height="42.0679" rx="3" ry="3" style="stroke:#566170;stroke-width:0.5;" width="239.9991" x="22" y="140.5679"/><polygon fill="#141A21" points="244.9991,145.5679,244.9991,159.5679,256.9991,159.5679,256.9991,151.5679,250.9991,145.5679,244.9991,145.5679" style="stroke:#566170;stroke-width:0.5;"/><line style="stroke:#566170;stroke-width:0.5;" x1="250.9991" x2="250.9991" y1="145.5679" y2="151.5679"/><line style="stroke:#566170;stroke-width:0.5;" x1="256.9991" x2="250.9991" y1="151.5679" y2="151.5679"/><text fill="#E7EBF0" font-family="monospace" font-size="14" lengthAdjust="spacing" textLength="209.9991" x="32" y="168.5339">&#201;cart&#160;global&#160;&#224;&#160;l'objectif</text></g><!--entity evaluate--><g class="entity" data-qualified-name="controller.evaluate" data-source-line="15" id="ent0008"><rect fill="#141A21" height="39.0679" rx="5" ry="5" style="stroke:#303946;stroke-width:0.5;" width="305.5988" x="460.5" y="293.0679"/><text fill="#E7EBF0" font-family="monospace" font-size="14" lengthAdjust="spacing" textLength="285.5988" x="470.5" y="318.0339">&#201;valuer&#160;l'efficacit&#233;&#160;de&#160;la&#160;m&#233;thode</text></g><!--entity drift--><g class="entity" data-qualified-name="controller.drift" data-source-line="16" id="ent0009"><rect fill="#141A21" height="39.0679" rx="5" ry="5" style="stroke:#303946;stroke-width:0.5;" width="187.9993" x="519.3" y="219.0679"/><text fill="#E7EBF0" font-family="monospace" font-size="14" lengthAdjust="spacing" textLength="167.9993" x="529.3" y="244.0339">D&#233;tecter&#160;les&#160;d&#233;rives</text></g><!--entity assumptions--><g class="entity" data-qualified-name="controller.assumptions" data-source-line="17" id="ent0010"><rect fill="#141A21" height="39.0679" rx="5" ry="5" style="stroke:#303946;stroke-width:0.5;" width="280.3989" x="964.6" y="293.0679"/><text fill="#E7EBF0" font-family="monospace" font-size="14" lengthAdjust="spacing" textLength="260.3989" x="974.6" y="318.0339">Revoir&#160;hypoth&#232;ses&#160;et&#160;garde-fous</text></g><!--entity decide--><g class="entity" data-qualified-name="controller.decide" data-source-line="18" id="ent0011"><rect fill="#141A21" height="39.0679" rx="5" ry="5" style="stroke:#303946;stroke-width:0.5;" width="364.3985" x="1305" y="293.0679"/><text fill="#E7EBF0" font-family="monospace" font-size="14" lengthAdjust="spacing" textLength="344.3985" x="1315" y="318.0339">D&#233;cider&#160;de&#160;poursuivre,&#160;pivoter&#160;ou&#160;arr&#234;ter</text></g><!--entity update--><g class="entity" data-qualified-name="controller.update" data-source-line="19" id="ent0012"><rect fill="#141A21" height="39.0679" rx="5" ry="5" style="stroke:#303946;stroke-width:0.5;" width="288.7988" x="1729.4" y="293.0679"/><text fill="#E7EBF0" font-family="monospace" font-size="14" lengthAdjust="spacing" textLength="268.7988" x="1739.4" y="318.0339">Mettre&#160;&#224;&#160;jour&#160;le&#160;mode&#160;op&#233;ratoire</text></g><!--entity restart--><g class="entity" data-qualified-name="controller.restart" data-source-line="20" id="ent0013"><rect fill="#141A21" height="39.0679" rx="5" ry="5" style="stroke:#303946;stroke-width:0.5;" width="229.9991" x="2112.59" y="293.0679"/><text fill="#E7EBF0" font-family="monospace" font-size="14" lengthAdjust="spacing" textLength="209.9991" x="2122.59" y="318.0339">Relancer&#160;le&#160;planificateur</text></g><!--entity revised--><g class="entity" data-qualified-name="Sorties.revised" data-source-line="7" id="ent0015"><rect fill="#141A21" height="42.0679" rx="3" ry="3" style="stroke:#566170;stroke-width:0.5;" width="155.9995" x="2149.59" y="445.5679"/><polygon fill="#141A21" points="2288.5895,450.5679,2288.5895,464.5679,2300.5895,464.5679,2300.5895,456.5679,2294.5895,450.5679,2288.5895,450.5679" style="stroke:#566170;stroke-width:0.5;"/><line style="stroke:#566170;stroke-width:0.5;" x1="2294.5895" x2="2294.5895" y1="450.5679" y2="456.5679"/><line style="stroke:#566170;stroke-width:0.5;" x1="2300.5895" x2="2294.5895" y1="456.5679" y2="456.5679"/><text fill="#E7EBF0" font-family="monospace" font-size="14" lengthAdjust="spacing" textLength="125.9995" x="2159.59" y="473.5339">M&#233;thode&#160;r&#233;vis&#233;e</text></g><!--entity decision--><g class="entity" data-qualified-name="Sorties.decision" data-source-line="7" id="ent0016"><rect fill="#141A21" height="42.0679" rx="3" ry="3" style="stroke:#566170;stroke-width:0.5;" width="172.7994" x="2141.19" y="522.5679"/><polygon fill="#141A21" points="2296.9894,527.5679,2296.9894,541.5679,2308.9894,541.5679,2308.9894,533.5679,2302.9894,527.5679,2296.9894,527.5679" style="stroke:#566170;stroke-width:0.5;"/><line style="stroke:#566170;stroke-width:0.5;" x1="2302.9894" x2="2302.9894" y1="527.5679" y2="533.5679"/><line style="stroke:#566170;stroke-width:0.5;" x1="2308.9894" x2="2302.9894" y1="533.5679" y2="533.5679"/><text fill="#E7EBF0" font-family="monospace" font-size="14" lengthAdjust="spacing" textLength="142.7994" x="2151.19" y="550.5339">D&#233;cision&#160;de&#160;cycle</text></g><!--entity newConstraints--><g class="entity" data-qualified-name="Sorties.newConstraints" data-source-line="7" id="ent0017"><rect fill="#141A21" height="42.0679" rx="3" ry="3" style="stroke:#566170;stroke-width:0.5;" width="206.3992" x="2124.39" y="676.5679"/><polygon fill="#141A21" points="2313.7892,681.5679,2313.7892,695.5679,2325.7892,695.5679,2325.7892,687.5679,2319.7892,681.5679,2313.7892,681.5679" style="stroke:#566170;stroke-width:0.5;"/><line style="stroke:#566170;stroke-width:0.5;" x1="2319.7892" x2="2319.7892" y1="681.5679" y2="687.5679"/><line style="stroke:#566170;stroke-width:0.5;" x1="2325.7892" x2="2319.7892" y1="687.5679" y2="687.5679"/><text fill="#E7EBF0" font-family="monospace" font-size="14" lengthAdjust="spacing" textLength="176.3992" x="2134.39" y="704.5339">Nouvelles&#160;contraintes</text></g><!--entity newObjective--><g class="entity" data-qualified-name="Sorties.newObjective" data-source-line="7" id="ent0018"><rect fill="#141A21" height="42.0679" rx="3" ry="3" style="stroke:#566170;stroke-width:0.5;" width="298.7988" x="2078.19" y="599.5679"/><polygon fill="#141A21" points="2359.9888,604.5679,2359.9888,618.5679,2371.9888,618.5679,2371.9888,610.5679,2365.9888,604.5679,2359.9888,604.5679" style="stroke:#566170;stroke-width:0.5;"/><line style="stroke:#566170;stroke-width:0.5;" x1="2365.9888" x2="2365.9888" y1="604.5679" y2="610.5679"/><line style="stroke:#566170;stroke-width:0.5;" x1="2371.9888" x2="2365.9888" y1="610.5679" y2="610.5679"/><text fill="#E7EBF0" font-family="monospace" font-size="14" lengthAdjust="spacing" textLength="268.7988" x="2088.19" y="627.5339">Objectif&#160;reformul&#233;&#160;si&#160;n&#233;cessaire</text></g><g class="entity" data-qualified-name="GMN32" data-source-line="45" id="ent0033"><path d="M322,107.8879 L322,143.2999 A5,5 0 0 0 327,148.2999 L899.5996,148.2999 A5,5 0 0 0 904.5996,143.2999 L904.5996,112.8879 L894.5996,102.8879 L327,102.8879 A5,5 0 0 0 322,107.8879" fill="#151B22" style="stroke:#3D4754;stroke-width:0.5;"/><path d="M894.5996,102.8879 L894.5996,110.3879 A2.5,2.5 0 0 0 897.0996,112.8879 L904.5996,112.8879 L894.5996,102.8879" fill="#151B22" style="stroke:#3D4754;stroke-width:1;"/><text fill="#C8D0D9" font-family="monospace" font-size="13" lengthAdjust="spacing" textLength="382.1999" x="328" y="121.7849">Le&#160;contr&#244;leur&#160;travaille&#160;sur&#160;la&#160;m&#233;thode&#160;elle-m&#234;me.</text><text fill="#C8D0D9" font-family="monospace" font-size="13" lengthAdjust="spacing" textLength="561.5996" x="328" y="139.4909">Il&#160;&#233;vite&#160;qu'une&#160;boucle&#160;inefficace&#160;r&#233;p&#232;te&#160;ind&#233;finiment&#160;les&#160;m&#234;mes&#160;actions.</text></g><!--entity back--><g class="entity" data-qualified-name="back" data-source-line="15" id="ent0035"><rect fill="#10161C" height="39.0679" rx="5" ry="5" style="stroke:#303946;stroke-width:0.5;" width="238.399" x="22.8" y="47.0679"/><a href="index.svg" target="_top" title="index.svg" xlink:actuate="onRequest" xlink:href="index.svg" xlink:show="new" xlink:title="index.svg" xlink:type="simple"><text fill="#0000FF" font-family="monospace" font-size="14" lengthAdjust="spacing" text-decoration="underline" textLength="218.399" x="32.8" y="72.0339">Retour&#160;&#224;&#160;la&#160;boucle&#160;globale</text></a></g><!--entity docs--><g class="entity" data-qualified-name="docs" data-source-line="51" id="ent0037"><rect fill="#10161C" height="39.0679" rx="5" ry="5" style="stroke:#303946;stroke-width:0.5;" width="213.1992" x="998.2" y="400.0679"/><a href="../stages/controller.md" target="_top" title="../stages/controller.md" xlink:actuate="onRequest" xlink:href="../stages/controller.md" xlink:show="new" xlink:title="../stages/controller.md" xlink:type="simple"><text fill="#0000FF" font-family="monospace" font-size="14" lengthAdjust="spacing" text-decoration="underline" textLength="193.1992" x="1008.2" y="425.0339">Documentation&#160;d&#233;taill&#233;e</text></a></g><!--link metrics to evaluate--><g class="link" data-entity-1="ent0003" data-entity-2="ent0008" data-link-type="dependency" data-source-line="30" id="lnk19"><path d="M232.88,385.8179 C349.24,385.8179 535.99,385.8179 535.99,385.8179 C535.99,385.8179 535.99,360.2779 535.99,338.6079" fill="none" id="metrics-to-evaluate" style="stroke:#93A0AE;stroke-width:1.6;"/><polygon fill="#93A0AE" points="535.99,332.6079,531.99,341.6079,535.99,337.6079,539.99,341.6079,535.99,332.6079" style="stroke:#93A0AE;stroke-width:1.6;"/></g><!--link patterns to evaluate--><g class="link" data-entity-1="ent0004" data-entity-2="ent0008" data-link-type="dependency" data-source-line="31" id="lnk20"><path d="M258.2,313.3479 C319.12,313.3479 388.52,313.3479 454.15,313.3479" fill="none" id="patterns-to-evaluate" style="stroke:#93A0AE;stroke-width:1.6;"/><polygon fill="#93A0AE" points="460.15,313.3479,451.15,309.3479,455.15,313.3479,451.15,317.3479,460.15,313.3479" style="stroke:#93A0AE;stroke-width:1.6;"/></g><!--link blockers to drift--><g class="link" data-entity-1="ent0005" data-entity-2="ent0009" data-link-type="dependency" data-source-line="32" id="lnk21"><path d="M237.09,245.1079 C319.24,245.1079 431.29,245.1079 513.16,245.1079" fill="none" id="blockers-to-drift" style="stroke:#93A0AE;stroke-width:1.6;"/><polygon fill="#93A0AE" points="519.16,245.1079,510.16,241.1079,514.16,245.1079,510.16,249.1079,519.16,245.1079" style="stroke:#93A0AE;stroke-width:1.6;"/></g><!--link outcome to drift--><g class="link" data-entity-1="ent0006" data-entity-2="ent0009" data-link-type="dependency" data-source-line="33" id="lnk22"><path d="M246.99,183.1279 C246.99,203.8579 246.99,232.0879 246.99,232.0879 C246.99,232.0879 404.43,232.0879 512.97,232.0879" fill="none" id="outcome-to-drift" style="stroke:#93A0AE;stroke-width:1.6;"/><polygon fill="#93A0AE" points="518.97,232.0879,509.97,228.0879,513.97,232.0879,509.97,236.0879,518.97,232.0879" style="stroke:#93A0AE;stroke-width:1.6;"/></g><!--link evaluate to assumptions--><g class="link" data-entity-1="ent0008" data-entity-2="ent0010" data-link-type="dependency" data-source-line="34" id="lnk23"><path d="M766.45,312.5979 C829.7,312.5979 896.54,312.5979 958.39,312.5979" fill="none" id="evaluate-to-assumptions" style="stroke:#93A0AE;stroke-width:1.6;"/><polygon fill="#93A0AE" points="964.39,312.5979,955.39,308.5979,959.39,312.5979,955.39,316.5979,964.39,312.5979" style="stroke:#93A0AE;stroke-width:1.6;"/></g><!--link drift to assumptions--><g class="link" data-entity-1="ent0009" data-entity-2="ent0010" data-link-type="dependency" data-source-line="35" id="lnk24"><path d="M707.52,238.5979 C850.29,238.5979 1104.99,238.5979 1104.99,238.5979 C1104.99,238.5979 1104.99,264.8479 1104.99,286.7679" fill="none" id="drift-to-assumptions" style="stroke:#93A0AE;stroke-width:1.6;"/><polygon fill="#93A0AE" points="1104.99,292.7679,1108.99,283.7679,1104.99,287.7679,1100.99,283.7679,1104.99,292.7679" style="stroke:#93A0AE;stroke-width:1.6;"/></g><!--link assumptions to decide--><g class="link" data-entity-1="ent0010" data-entity-2="ent0011" data-link-type="dependency" data-source-line="36" id="lnk25"><path d="M1245.29,312.5979 C1264.68,312.5979 1278.82,312.5979 1298.82,312.5979" fill="none" id="assumptions-to-decide" style="stroke:#93A0AE;stroke-width:1.6;"/><polygon fill="#93A0AE" points="1304.82,312.5979,1295.82,308.5979,1299.82,312.5979,1295.82,316.5979,1304.82,312.5979" style="stroke:#93A0AE;stroke-width:1.6;"/></g><!--link decide to update--><g class="link" data-entity-1="ent0011" data-entity-2="ent0012" data-link-type="dependency" data-source-line="37" id="lnk26"><path d="M1669.74,312.5979 C1689.68,312.5979 1703.78,312.5979 1723.17,312.5979" fill="none" id="decide-to-update" style="stroke:#93A0AE;stroke-width:1.6;"/><polygon fill="#93A0AE" points="1729.17,312.5979,1720.17,308.5979,1724.17,312.5979,1720.17,316.5979,1729.17,312.5979" style="stroke:#93A0AE;stroke-width:1.6;"/></g><!--link update to restart--><g class="link" data-entity-1="ent0012" data-entity-2="ent0013" data-link-type="dependency" data-source-line="38" id="lnk27"><path d="M2018.46,312.5979 C2049.69,312.5979 2076.29,312.5979 2106.22,312.5979" fill="none" id="update-to-restart" style="stroke:#93A0AE;stroke-width:1.6;"/><polygon fill="#93A0AE" points="2112.22,312.5979,2103.22,308.5979,2107.22,312.5979,2103.22,316.5979,2112.22,312.5979" style="stroke:#93A0AE;stroke-width:1.6;"/></g><!--link update to revised--><g class="link" data-entity-1="ent0012" data-entity-2="ent0015" data-link-type="dependency" data-source-line="39" id="lnk28"><path d="M1873.99,332.4179 C1873.99,374.0079 1873.99,466.5979 1873.99,466.5979 C1873.99,466.5979 2038.95,466.5979 2143.12,466.5979" fill="none" id="update-to-revised" style="stroke:#93A0AE;stroke-width:1.6;"/><polygon fill="#93A0AE" points="2149.12,466.5979,2140.12,462.5979,2144.12,466.5979,2140.12,470.5979,2149.12,466.5979" style="stroke:#93A0AE;stroke-width:1.6;"/></g><!--link decide to decision--><g class="link" data-entity-1="ent0011" data-entity-2="ent0016" data-link-type="dependency" data-source-line="40" id="lnk29"><path d="M1547.99,332.2879 C1547.99,388.1579 1547.99,543.5979 1547.99,543.5979 C1547.99,543.5979 1951.62,543.5979 2134.83,543.5979" fill="none" id="decide-to-decision" style="stroke:#93A0AE;stroke-width:1.6;"/><polygon fill="#93A0AE" points="2140.83,543.5979,2131.83,539.5979,2135.83,543.5979,2131.83,547.5979,2140.83,543.5979" style="stroke:#93A0AE;stroke-width:1.6;"/></g><!--link assumptions to newConstraints--><g class="link" data-entity-1="ent0010" data-entity-2="ent0017" data-link-type="dependency" data-source-line="41" id="lnk30"><path d="M1227.99,332.4879 C1227.99,411.3279 1227.99,697.5979 1227.99,697.5979 C1227.99,697.5979 1862.21,697.5979 2117.92,697.5979" fill="none" id="assumptions-to-newConstraints" style="stroke:#93A0AE;stroke-width:1.6;"/><polygon fill="#93A0AE" points="2123.92,697.5979,2114.92,693.5979,2118.92,697.5979,2114.92,701.5979,2123.92,697.5979" style="stroke:#93A0AE;stroke-width:1.6;"/></g><!--link decide to newObjective--><g class="link" data-entity-1="ent0011" data-entity-2="ent0018" data-link-type="dependency" data-source-line="42" id="lnk31"><path d="M1425.99,332.3379 C1425.99,400.3079 1425.99,620.5979 1425.99,620.5979 C1425.99,620.5979 1839.75,620.5979 2071.76,620.5979" fill="none" id="decide-to-newObjective" style="stroke:#93A0AE;stroke-width:1.6;"/><polygon fill="#93A0AE" points="2077.76,620.5979,2068.76,616.5979,2072.76,620.5979,2068.76,624.5979,2077.76,620.5979" style="stroke:#93A0AE;stroke-width:1.6;"/></g><!--link controller to GMN32--><g class="link" data-entity-1="ent0007" data-entity-2="ent0033" data-link-type="association" data-source-line="45" id="lnk34"><path d="M435.5762,367.5979 C434.1974,367.5979 432.8401,367.5979 431.5061,367.5979 C428.8379,367.5979 426.2625,367.5979 423.7922,367.5979 C404.0294,367.5979 390.99,367.5979 390.99,367.5979 C390.99,367.5979 390.99,209.3679 390.99,148.7979" fill="none" id="controller-GMN32" style="stroke:#93A0AE;stroke-width:1.6;stroke-dasharray:7,7;"/></g><!--link back to controller--><g class="link" data-entity-1="ent0035" data-entity-2="ent0007" data-link-type="association" data-source-line="50" id="lnk36"><path d="M261.64,66.5979 C279.46,66.5979 291.99,66.5979 291.99,66.5979 C291.99,66.5979 291.99,351.6179 291.99,351.6179 C291.99,351.6179 312.0525,351.6179 342.1463,351.6179 C357.1931,351.6179 374.7478,351.6179 393.5564,351.6179 C402.9607,351.6179 412.6785,351.6179 422.553,351.6179 C425.0216,351.6179 427.5,351.6179 429.9858,351.6179 C431.2287,351.6179 432.4734,351.6179 433.7197,351.6179 C434.3428,351.6179 434.9663,351.6179 435.5902,351.6179" fill="none" id="back-controller" style="stroke:#93A0AE;stroke-width:1.6;stroke-dasharray:7,7;"/></g><!--link controller to docs--><g class="link" data-entity-1="ent0007" data-entity-2="ent0037" data-link-type="association" data-source-line="52" id="lnk38"><path d="M612.99,375.6128 C612.99,375.6711 612.99,375.7296 612.99,375.7883 C612.99,376.023 612.99,376.2612 612.99,376.5024 C612.99,380.3626 612.99,385.021 612.99,389.5167 C612.99,398.5079 612.99,406.8479 612.99,406.8479 C612.99,406.8479 853.1,406.8479 997.78,406.8479" fill="none" id="controller-docs" style="stroke:#93A0AE;stroke-width:1.6;stroke-dasharray:7,7;"/></g><?plantuml-src TLJDJXj13BxlKxW12P18QAgA4qBYfmSaVYJQdX27oQmt6PYTsSxFLbLLgTVUUO0U2UTAlNVVf4zIUtO36q8lYTSpdyV-_Dclb94wvWYZqKvd-fqmmn97AfOwU_NIkRHbQSrGkA0A8ODlhsP11OsmDzb_lGj_ViFHnVc7o-RkzDt7oxsToJxy_Nu7hfdNoYjhCer5W631gUaiGAuSoi3-h1BoLamH1kzCeEle1_0r0rW_CLKC1zsJcoK6fwJVXi5PCoVpKqGFUGJvHMeSRAq2AX42EiE8WwfoQ8Bodjxn8AICPTJDtB-4csWhRz4nxf3CXA2qP7GSuqM8ZO4OGa8qFoIH15Dj9q93ynFqXftSSAK50Rzb6TshhA50C3YoNEylZT4DG7YG_6srHWThuxVZWpVZn0Fp9CoKYARejT2HplK65eMIGghGp86QfGMKHClCvfXY8LyK0PVnntI5lZW0azVCdQgPRWBaJXLX-VObrbOvc7sfR9WrzvuWIAK9b-EmiB752UzZMN4Z_SfRKkNq56LNsUXyLBKZYYfLMyx0HX3EDGzajmaWNr-ESOOXE6GQRoW29Gqb5GYsein5eEJQOcELhvHwYLeOcIg5Yap5T8K5rGvze3vnGnxLzzvIEn_5Tn53lyCEISMOT-fZcZjbarvRHJm3S3ai--sE2RQPYfvSdo4CVYP5-E248faHxjp66ZLtAYc3tUZ_1xreLLQp23kxe38BwvBImIimb0VI231jIOlTIC5mkFyacCNOB7iNGv6yhLOwqVSyYzl9rHT6EbxnzkmsIAk0zYzvkiQsVycpQDoIAxMcZrkGl_B4CiTzI9_2B3CaKPZO46m9jkXDPdQAxLSxjq2HQg7e13mBz6aAWJitB9i7sglP2Qq24Wl5_1Gtek7GaMG0odHZdDHKDVU1VJINXJAgv2N1tKz1U6kbEaOPcXmumInRFoJndYfpkpaXOolZNzhR_Nnx8t5rHIkTw9kcXRwuCIfpEBQq4Eav4P9AgGIkYQHzVTtEfYMLh8rVZtV7HrblJT5JVFGF?></g></svg>