<?plantuml 1.2026.2?><svg xmlns="http://www.w3.org/2000/svg" xmlns:xlink="http://www.w3.org/1999/xlink" contentStyleType="text/css" data-diagram-type="DESCRIPTION" height="557px" preserveAspectRatio="none" style="width:2867px;height:557px;background:#0B0F12;" version="1.1" viewBox="0 0 2867 557" width="2867px" zoomAndPan="magnify"><title>&lt;b&gt;04 &#183; M&#201;MOIRE&lt;/b&gt; &#8212; exp&#233;rience</title><defs/><g><rect fill="#0B0F12" height="557" style="stroke:none;stroke-width:1;" width="2867" x="0" y="0"/><g class="title" data-source-line="4"><text fill="#E7EBF0" font-family="monospace" font-size="14" font-weight="bold" lengthAdjust="spacing" textLength="96.7746" x="1329.3786" y="24.9659">04&#160;&#183;&#160;M&#201;MOIRE</text><text fill="#E7EBF0" font-family="monospace" font-size="14" font-weight="bold" lengthAdjust="spacing" textLength="94.8181" x="1429.7932" y="24.9659">&#8212;&#160;exp&#233;rience</text></g><!--cluster Entr?es--><g class="cluster" data-qualified-name="Entr.es" data-source-line="7" id="ent0002"><path d="M20.4,75.7779 L69.2323,75.7779 A7.5,7.5 0 0 1 74.2323,80.7779 L81.2323,100.8458 L232,100.8458 A5,5 0 0 1 237,105.8458 L237,397.7779 A5,5 0 0 1 232,402.7779 L20.4,402.7779 A5,5 0 0 1 15.4,397.7779 L15.4,80.7779 A5,5 0 0 1 20.4,75.7779" fill="#10161C" style="stroke:#303946;stroke-width:1.5;"/><line style="stroke:#303946;stroke-width:1.5;" x1="15.4" x2="81.2323" y1="100.8458" y2="100.8458"/><text fill="#E7EBF0" font-family="monospace" font-size="14" font-weight="bold" lengthAdjust="spacing" textLength="52.8323" x="19.4" y="92.7439">Entr&#233;es</text></g><!--cluster memory--><g class="cluster" data-qualified-name="memory" data-source-line="14" id="ent0007"><rect fill="#141A21" height="129" rx="5" ry="5" style="stroke:#303946;stroke-width:1;" width="2039.59" x="475.4" y="222.7779"/><rect fill="#141A21" height="10" style="stroke:#303946;stroke-width:1;" width="15" x="2494.99" y="227.7779"/><rect fill="#141A21" height="2" style="stroke:#303946;stroke-width:1;" width="4" x="2492.99" y="229.7779"/><rect fill="#141A21" height="2" style="stroke:#303946;stroke-width:1;" width="4" x="2492.99" y="233.7779"/><text fill="#E7EBF0" font-family="monospace" font-size="14" font-weight="bold" lengthAdjust="spacing" textLength="62.5063" x="1463.9419" y="250.7439">M&#233;moire</text></g><!--cluster Sorties--><g class="cluster" data-qualified-name="Sorties" data-source-line="23" id="ent0014"><path d="M2551.99,223.7779 L2596.2583,223.7779 A7.5,7.5 0 0 1 2601.2583,228.7779 L2608.2583,248.8458 L2855.99,248.8458 A5,5 0 0 1 2860.99,253.8458 L2860.99,545.7779 A5,5 0 0 1 2855.99,550.7779 L2551.99,550.7779 A5,5 0 0 1 2546.99,545.7779 L2546.99,228.7779 A5,5 0 0 1 2551.99,223.7779" fill="#10161C" style="stroke:#303946;stroke-width:1.5;"/><line style="stroke:#303946;stroke-width:1.5;" x1="2546.99" x2="2608.2583" y1="248.8458" y2="248.8458"/><text fill="#E7EBF0" font-family="monospace" font-size="14" font-weight="bold" lengthAdjust="spacing" textLength="48.2683" x="2550.99" y="240.7439">Sorties</text></g><!--entity verdict--><g class="entity" data-qualified-name="Entr.es.verdict" data-source-line="3" id="ent0003"><rect fill="#141A21" height="42.0679" rx="3" ry="3" style="stroke:#566170;stroke-width:0.5;" width="172.7994" x="39.8" y="344.7479"/><polygon fill="#141A21" points="195.5994,349.7479,195.5994,363.7479,207.5994,363.7479,207.5994,355.7479,201.5994,349.7479,195.5994,349.7479" style="stroke:#566170;stroke-width:0.5;"/><line style="stroke:#566170;stroke-width:0.5;" x1="201.5994" x2="201.5994" y1="349.7479" y2="355.7479"/><line style="stroke:#566170;stroke-width:0.5;" x1="207.5994" x2="201.5994" y1="355.7479" y2="355.7479"/><text fill="#E7EBF0" font-family="monospace" font-size="14" lengthAdjust="spacing" textLength="142.7994" x="49.8" y="372.7139">Verdict&#160;et&#160;&#233;carts</text></g><!--entity log--><g class="entity" data-qualified-name="Entr.es.log" data-source-line="3" id="ent0004"><rect fill="#141A21" height="42.0679" rx="3" ry="3" style="stroke:#566170;stroke-width:0.5;" width="189.5993" x="31.4" y="267.7479"/><polygon fill="#141A21" points="203.9993,272.7479,203.9993,286.7479,215.9993,286.7479,215.9993,278.7479,209.9993,272.7479,203.9993,272.7479" style="stroke:#566170;stroke-width:0.5;"/><line style="stroke:#566170;stroke-width:0.5;" x1="209.9993" x2="209.9993" y1="272.7479" y2="278.7479"/><line style="stroke:#566170;stroke-width:0.5;" x1="215.9993" x2="209.9993" y1="278.7479" y2="278.7479"/><text fill="#E7EBF0" font-family="monospace" font-size="14" lengthAdjust="spacing" textLength="159.5993" x="41.4" y="295.7139">Journal&#160;d'ex&#233;cution</text></g><!--entity decisions--><g class="entity" data-qualified-name="Entr.es.decisions" data-source-line="3" id="ent0005"><rect fill="#141A21" height="42.0679" rx="3" ry="3" style="stroke:#566170;stroke-width:0.5;" width="164.3994" x="44" y="190.7479"/><polygon fill="#141A21" points="191.3994,195.7479,191.3994,209.7479,203.3994,209.7479,203.3994,201.7479,197.3994,195.7479,191.3994,195.7479" style="stroke:#566170;stroke-width:0.5;"/><line style="stroke:#566170;stroke-width:0.5;" x1="197.3994" x2="197.3994" y1="195.7479" y2="201.7479"/><line style="stroke:#566170;stroke-width:0.5;" x1="203.3994" x2="197.3994" y1="201.7479" y2="201.7479"/><text fill="#E7EBF0" font-family="monospace" font-size="14" lengthAdjust="spacing" textLength="134.3994" x="54" y="218.7139">D&#233;cisions&#160;prises</text></g><!--entity context--><g class="entity" data-qualified-name="Entr.es.context" data-source-line="3" id="ent0006"><rect fill="#141A21" height="42.0679" rx="3" ry="3" style="stroke:#566170;stroke-width:0.5;" width="189.5993" x="31.4" y="113.7479"/><polygon fill="#141A21" points="203.9993,118.7479,203.9993,132.7479,215.9993,132.7479,215.9993,124.7479,209.9993,118.7479,203.9993,118.7479" style="stroke:#566170;stroke-width:0.5;"/><line style="stroke:#566170;stroke-width:0.5;" x1="209.9993" x2="209.9993" y1="118.7479" y2="124.7479"/><line style="stroke:#566170;stroke-width:0.5;" x1="215.9993" x2="209.9993" y1="124.7479" y2="124.7479"/><text fill="#E7EBF0" font-family="monospace" font-size="14" lengthAdjust="spacing" textLength="159.5993" x="41.4" y="141.7139">Contexte&#160;et&#160;version</text></g><!--entity facts--><g class="entity" data-qualified-name="memory.facts" data-source-line="15" id="ent0008"><rect fill="#141A21" height="39.0679" rx="5" ry="5" style="stroke:#303946;stroke-width:0.5;" width="171.1993" x="499.4" y="269.2479"/><text fill="#E7EBF0" font-family="monospace" font-size="14" lengthAdjust="spacing" textLength="151.1993" x="509.4" y="294.2139">Extraire&#160;les&#160;faits</text></g><!--entity source--><g class="entity" data-qualified-name="memory.source" data-source-line="16" id="ent0009"><rect fill="#141A21" height="39.0679" rx="5" ry="5" style="stroke:#303946;stroke-width:0.5;" width="179.5993" x="941.4" y="269.2479"/><text fill="#E7EBF0" font-family="monospace" font-size="14" lengthAdjust="spacing" textLength="159.5993" x="951.4" y="294.2139">Qualifier&#160;la&#160;source</text></g><!--entity conflicts--><g class="entity" data-qualified-name="memory.conflicts" data-source-line="17" id="ent0010"><rect fill="#141A21" height="39.0679" rx="5" ry="5" style="stroke:#303946;stroke-width:0.5;" width="263.5989" x="1197.8" y="269.2479"/><text fill="#E7EBF0" font-family="monospace" font-size="14" lengthAdjust="spacing" textLength="243.5989" x="1207.8" y="294.2139">D&#233;tecter&#160;conflits&#160;et&#160;doublons</text></g><!--entity temporal--><g class="entity" data-qualified-name="memory.temporal" data-source-line="18" id="ent0011"><rect fill="#141A21" height="39.0679" rx="5" ry="5" style="stroke:#303946;stroke-width:0.5;" width="288.7988" x="1521.4" y="269.2479"/><text fill="#E7EBF0" font-family="monospace" font-size="14" lengthAdjust="spacing" textLength="268.7988" x="1531.4" y="294.2139">Associer&#160;contexte&#160;et&#160;temporalit&#233;</text></g><!--entity retain--><g class="entity" data-qualified-name="memory.retain" data-source-line="19" id="ent0012"><rect fill="#141A21" height="39.0679" rx="5" ry="5" style="stroke:#303946;stroke-width:0.5;" width="255.199" x="1870.2" y="269.2479"/><text fill="#E7EBF0" font-family="monospace" font-size="14" lengthAdjust="spacing" textLength="235.199" x="1880.2" y="294.2139">Conserver&#160;les&#160;apprentissages</text></g><!--entity retrieve--><g class="entity" data-qualified-name="memory.retrieve" data-source-line="20" id="ent0013"><rect fill="#141A21" height="39.0679" rx="5" ry="5" style="stroke:#303946;stroke-width:0.5;" width="305.5988" x="2185.39" y="269.2479"/><text fill="#E7EBF0" font-family="monospace" font-size="14" lengthAdjust="spacing" textLength="285.5988" x="2195.39" y="294.2139">Rendre&#160;la&#160;connaissance&#160;retrouvable</text></g><!--entity knowledge--><g class="entity" data-qualified-name="Sorties.knowledge" data-source-line="7" id="ent0015"><rect fill="#141A21" height="42.0679" rx="3" ry="3" style="stroke:#566170;stroke-width:0.5;" width="239.9991" x="2583.99" y="261.7479"/><polygon fill="#141A21" points="2806.9891,266.7479,2806.9891,280.7479,2818.9891,280.7479,2818.9891,272.7479,2812.9891,266.7479,2806.9891,266.7479" style="stroke:#566170;stroke-width:0.5;"/><line style="stroke:#566170;stroke-width:0.5;" x1="2812.9891" x2="2812.9891" y1="266.7479" y2="272.7479"/><line style="stroke:#566170;stroke-width:0.5;" x1="2818.9891" x2="2812.9891" y1="272.7479" y2="272.7479"/><text fill="#E7EBF0" font-family="monospace" font-size="14" lengthAdjust="spacing" textLength="209.9991" x="2593.99" y="289.7139">Connaissances&#160;structur&#233;es</text></g><!--entity patterns--><g class="entity" data-qualified-name="Sorties.patterns" data-source-line="7" id="ent0016"><rect fill="#141A21" height="42.0679" rx="3" ry="3" style="stroke:#566170;stroke-width:0.5;" width="281.9989" x="2562.99" y="338.7479"/><polygon fill="#141A21" points="2827.9889,343.7479,2827.9889,357.7479,2839.9889,357.7479,2839.9889,349.7479,2833.9889,343.7479,2827.9889,343.7479" style="stroke:#566170;stroke-width:0.5;"/><line style="stroke:#566170;stroke-width:0.5;" x1="2833.9889" x2="2833.9889" y1="343.7479" y2="349.7479"/><line style="stroke:#566170;stroke-width:0.5;" x1="2839.9889" x2="2833.9889" y1="349.7479" y2="349.7479"/><text fill="#E7EBF0" font-family="monospace" font-size="14" lengthAdjust="spacing" textLength="251.9989" x="2572.99" y="366.7139">R&#233;ussites&#160;et&#160;&#233;checs&#160;r&#233;currents</text></g><!--entity conflictsOut--><g class="entity" data-qualified-name="Sorties.conflictsOut" data-source-line="7" id="ent0017"><rect fill="#141A21" height="42.0679" rx="3" ry="3" style="stroke:#566170;stroke-width:0.5;" width="197.9993" x="2604.99" y="415.7479"/><polygon fill="#141A21" points="2785.9893,420.7479,2785.9893,434.7479,2797.9893,434.7479,2797.9893,426.7479,2791.9893,420.7479,2785.9893,420.7479" style="stroke:#566170;stroke-width:0.5;"/><line style="stroke:#566170;stroke-width:0.5;" x1="2791.9893" x2="2791.9893" y1="420.7479" y2="426.7479"/><line style="stroke:#566170;stroke-width:0.5;" x1="2797.9893" x2="2791.9893" y1="426.7479" y2="426.7479"/><text fill="#E7EBF0" font-family="monospace" font-size="14" lengthAdjust="spacing" textLength="167.9993" x="2614.99" y="443.7139">Conflits&#160;non&#160;r&#233;solus</text></g><!--entity traceability--><g class="entity" data-qualified-name="Sorties.traceability" data-source-line="7" id="ent0018"><rect fill="#141A21" height="42.0679" rx="3" ry="3" style="stroke:#566170;stroke-width:0.5;" width="239.9991" x="2583.99" y="492.7479"/><polygon fill="#141A21" points="2806.9891,497.7479,2806.9891,511.7479,2818.9891,511.7479,2818.9891,503.7479,2812.9891,497.7479,2806.9891,497.7479" style="stroke:#566170;stroke-width:0.5;"/><line style="stroke:#566170;stroke-width:0.5;" x1="2812.9891" x2="2812.9891" y1="497.7479" y2="503.7479"/><line style="stroke:#566170;stroke-width:0.5;" x1="2818.9891" x2="2812.9891" y1="503.7479" y2="503.7479"/><text fill="#E7EBF0" font-family="monospace" font-size="14" lengthAdjust="spacing" textLength="209.9991" x="2593.99" y="520.7139">Tra&#231;abilit&#233;&#160;des&#160;d&#233;cisions</text></g><g class="entity" data-qualified-name="GMN32" data-source-line="45" id="ent0033"><path d="M305.4,51.0679 L305.4,86.4799 A5,5 0 0 0 310.4,91.4799 L859.5996,91.4799 A5,5 0 0 0 864.5996,86.4799 L864.5996,56.0679 L854.5996,46.0679 L310.4,46.0679 A5,5 0 0 0 305.4,51.0679" fill="#151B22" style="stroke:#3D4754;stroke-width:0.5;"/><path d="M854.5996,46.0679 L854.5996,53.5679 A2.5,2.5 0 0 0 857.0996,56.0679 L864.5996,56.0679 L854.5996,46.0679" fill="#151B22" style="stroke:#3D4754;stroke-width:1;"/><text fill="#C8D0D9" font-family="monospace" font-size="13" lengthAdjust="spacing" textLength="460.1998" x="311.4" y="64.9649">La&#160;m&#233;moire&#160;conserve&#160;des&#160;&#233;l&#233;ments&#160;sourc&#233;s&#160;et&#160;contextualis&#233;s.</text><text fill="#C8D0D9" font-family="monospace" font-size="13" lengthAdjust="spacing" textLength="538.1996" x="311.4" y="82.6709">Elle&#160;ne&#160;transforme&#160;pas&#160;une&#160;hypoth&#232;se&#160;en&#160;v&#233;rit&#233;&#160;par&#160;simple&#160;r&#233;p&#233;tition.</text></g><!--entity back--><g class="entity" data-qualified-name="back" data-source-line="15" id="ent0035"><rect fill="#10161C" height="39.0679" rx="5" ry="5" style="stroke:#303946;stroke-width:0.5;" width="238.399" x="7" y="422.2479"/><a href="index.svg" target="_top" title="index.svg" xlink:actuate="onRequest" xlink:href="index.svg" xlink:show="new" xlink:title="index.svg" xlink:type="simple"><text fill="#0000FF" font-family="monospace" font-size="14" lengthAdjust="spacing" text-decoration="underline" textLength="218.399" x="17" y="447.2139">Retour&#160;&#224;&#160;la&#160;boucle&#160;globale</text></a></g><!--entity docs--><g class="entity" data-qualified-name="docs" data-source-line="51" id="ent0037"><rect fill="#10161C" height="39.0679" rx="5" ry="5" style="stroke:#303946;stroke-width:0.5;" width="213.1992" x="924.6" y="376.2479"/><a href="../stages/memory.md" target="_top" title="../stages/memory.md" xlink:actuate="onRequest" xlink:href="../stages/memory.md" xlink:show="new" xlink:title="../stages/memory.md" xlink:type="simple"><text fill="#0000FF" font-family="monospace" font-size="14" lengthAdjust="spacing" text-decoration="underline" textLength="193.1992" x="934.6" y="401.2139">Documentation&#160;d&#233;taill&#233;e</text></a></g><!--link verdict to facts--><g class="link" data-entity-1="ent0003" data-entity-2="ent0008" data-link-type="dependency" data-source-line="30" id="lnk19"><path d="M212.86,344.7579 C334.71,344.7579 541.99,344.7579 541.99,344.7579 C541.99,344.7579 541.99,330.7679 541.99,314.6779" fill="none" id="verdict-to-facts" style="stroke:#93A0AE;stroke-width:1.6;"/><polygon fill="#93A0AE" points="541.99,308.6779,537.99,317.6779,541.99,313.6779,545.99,317.6779,541.99,308.6779" style="stroke:#93A0AE;stroke-width:1.6;"/></g><!--link log to facts--><g class="link" data-entity-1="ent0004" data-entity-2="ent0008" data-link-type="dependency" data-source-line="31" id="lnk20"><path d="M221.26,288.7779 C303.02,288.7779 413.93,288.7779 492.96,288.7779" fill="none" id="log-to-facts" style="stroke:#93A0AE;stroke-width:1.6;"/><polygon fill="#93A0AE" points="498.96,288.7779,489.96,284.7779,493.96,288.7779,489.96,292.7779,498.96,288.7779" style="stroke:#93A0AE;stroke-width:1.6;"/></g><!--link decisions to source--><g class="link" data-entity-1="ent0005" data-entity-2="ent0009" data-link-type="dependency" data-source-line="32" id="lnk21"><path d="M208.89,211.7779 C432.25,211.7779 1030.99,211.7779 1030.99,211.7779 C1030.99,211.7779 1030.99,240.1379 1030.99,262.9479" fill="none" id="decisions-to-source" style="stroke:#93A0AE;stroke-width:1.6;"/><polygon fill="#93A0AE" points="1030.99,268.9479,1034.99,259.9479,1030.99,263.9479,1026.99,259.9479,1030.99,268.9479" style="stroke:#93A0AE;stroke-width:1.6;"/></g><!--link context to temporal--><g class="link" data-entity-1="ent0006" data-entity-2="ent0011" data-link-type="dependency" data-source-line="33" id="lnk22"><path d="M221.36,134.7779 C557.07,134.7779 1665.99,134.7779 1665.99,134.7779 C1665.99,134.7779 1665.99,221.3679 1665.99,262.9579" fill="none" id="context-to-temporal" style="stroke:#93A0AE;stroke-width:1.6;"/><polygon fill="#93A0AE" points="1665.99,268.9579,1669.99,259.9579,1665.99,263.9579,1661.99,259.9579,1665.99,268.9579" style="stroke:#93A0AE;stroke-width:1.6;"/></g><!--link facts to source--><g class="link" data-entity-1="ent0008" data-entity-2="ent0009" data-link-type="dependency" data-source-line="34" id="lnk23"><path d="M671.03,288.7779 C748.65,288.7779 856.41,288.7779 935.22,288.7779" fill="none" id="facts-to-source" style="stroke:#93A0AE;stroke-width:1.6;"/><polygon fill="#93A0AE" points="941.22,288.7779,932.22,284.7779,936.22,288.7779,932.22,292.7779,941.22,288.7779" style="stroke:#93A0AE;stroke-width:1.6;"/></g><!--link source to conflicts--><g class="link" data-entity-1="ent0009" data-entity-2="ent0010" data-link-type="dependency" data-source-line="35" id="lnk24"><path d="M1121.13,282.2679 C1145.16,282.2679 1165.63,282.2679 1191.42,282.2679" fill="none" id="source-to-conflicts" style="stroke:#93A0AE;stroke-width:1.6;"/><polygon fill="#93A0AE" points="1197.42,282.2679,1188.42,278.2679,1192.42,282.2679,1188.42,286.2679,1197.42,282.2679" style="stroke:#93A0AE;stroke-width:1.6;"/></g><!--link conflicts to temporal--><g class="link" data-entity-1="ent0010" data-entity-2="ent0011" data-link-type="dependency" data-source-line="36" id="lnk25"><path d="M1461.51,288.7779 C1481.01,288.7779 1495.19,288.7779 1514.93,288.7779" fill="none" id="conflicts-to-temporal" style="stroke:#93A0AE;stroke-width:1.6;"/><polygon fill="#93A0AE" points="1520.93,288.7779,1511.93,284.7779,1515.93,288.7779,1511.93,292.7779,1520.93,288.7779" style="stroke:#93A0AE;stroke-width:1.6;"/></g><!--link temporal to retain--><g class="link" data-entity-1="ent0011" data-entity-2="ent0012" data-link-type="dependency" data-source-line="37" id="lnk26"><path d="M1810.45,288.7779 C1830.2,288.7779 1844.35,288.7779 1863.77,288.7779" fill="none" id="temporal-to-retain" style="stroke:#93A0AE;stroke-width:1.6;"/><polygon fill="#93A0AE" points="1869.77,288.7779,1860.77,284.7779,1864.77,288.7779,1860.77,292.7779,1869.77,288.7779" style="stroke:#93A0AE;stroke-width:1.6;"/></g><!--link retain to retrieve--><g class="link" data-entity-1="ent0012" data-entity-2="ent0013" data-link-type="dependency" data-source-line="38" id="lnk27"><path d="M2125.52,288.7779 C2144.95,288.7779 2159.17,288.7779 2179.07,288.7779" fill="none" id="retain-to-retrieve" style="stroke:#93A0AE;stroke-width:1.6;"/><polygon fill="#93A0AE" points="2185.07,288.7779,2176.07,284.7779,2180.07,288.7779,2176.07,292.7779,2185.07,288.7779" style="stroke:#93A0AE;stroke-width:1.6;"/></g><!--link retrieve to knowledge--><g class="link" data-entity-1="ent0013" data-entity-2="ent0015" data-link-type="dependency" data-source-line="39" id="lnk28"><path d="M2491.47,286.5279 C2522.29,286.5279 2548.25,286.5279 2577.75,286.5279" fill="none" id="retrieve-to-knowledge" style="stroke:#93A0AE;stroke-width:1.6;"/><polygon fill="#93A0AE" points="2583.75,286.5279,2574.75,282.5279,2578.75,286.5279,2574.75,290.5279,2583.75,286.5279" style="stroke:#93A0AE;stroke-width:1.6;"/></g><!--link retain to patterns--><g class="link" data-entity-1="ent0012" data-entity-2="ent0016" data-link-type="dependency" data-source-line="40" id="lnk29"><path d="M1997.99,308.6379 C1997.99,324.3879 1997.99,343.7779 1997.99,343.7779 C1997.99,343.7779 2350.79,343.7779 2556.82,343.7779" fill="none" id="retain-to-patterns" style="stroke:#93A0AE;stroke-width:1.6;"/><polygon fill="#93A0AE" points="2562.82,343.7779,2553.82,339.7779,2557.82,343.7779,2553.82,347.7779,2562.82,343.7779" style="stroke:#93A0AE;stroke-width:1.6;"/></g><!--link conflicts to conflictsOut--><g class="link" data-entity-1="ent0010" data-entity-2="ent0017" data-link-type="dependency" data-source-line="41" id="lnk30"><path d="M1329.99,308.5479 C1329.99,349.5479 1329.99,440.0279 1329.99,440.0279 C1329.99,440.0279 2283.01,440.0279 2598.63,440.0279" fill="none" id="conflicts-to-conflictsOut" style="stroke:#93A0AE;stroke-width:1.6;"/><polygon fill="#93A0AE" points="2604.63,440.0279,2595.63,436.0279,2599.63,440.0279,2595.63,444.0279,2604.63,440.0279" style="stroke:#93A0AE;stroke-width:1.6;"/></g><!--link source to traceability--><g class="link" data-entity-1="ent0009" data-entity-2="ent0018" data-link-type="dependency" data-source-line="42" id="lnk31"><path d="M1121.3,295.2879 C1146.91,295.2879 1167.99,295.2879 1167.99,295.2879 C1167.99,295.2879 1167.99,513.7779 1167.99,513.7779 C1167.99,513.7779 2215.99,513.7779 2577.79,513.7779" fill="none" id="source-to-traceability" style="stroke:#93A0AE;stroke-width:1.6;"/><polygon fill="#93A0AE" points="2583.79,513.7779,2574.79,509.7779,2578.79,513.7779,2574.79,517.7779,2583.79,513.7779" style="stroke:#93A0AE;stroke-width:1.6;"/></g><!--link memory to GMN32--><g class="link" data-entity-1="ent0007" data-entity-2="ent0033" data-link-type="association" data-source-line="45" id="lnk34"><path d="M474.8536,343.7579 C474.5165,343.7579 474.1798,343.7579 473.8435,343.7579 C473.1708,343.7579 472.4996,343.7579 471.8301,343.7579 C466.4737,343.7579 461.2225,343.7579 456.1556,343.7579 C446.0218,343.7579 436.6255,343.7579 428.6009,343.7579 C412.5519,343.7579 401.99,343.7579 401.99,343.7579 C401.99,343.7579 401.99,157.8379 401.99,91.7479" fill="none" id="memory-GMN32" style="stroke:#93A0AE;stroke-width:1.6;stroke-dasharray:7,7;"/></g><!--link back to memory--><g class="link" data-entity-1="ent0035" data-entity-2="ent0007" data-link-type="association" data-source-line="50" id="lnk36"><path d="M232.99,421.8479 C232.99,388.3179 232.99,324.2779 232.99,324.2779 C232.99,324.2779 320.99,324.2779 408.99,324.2779 C430.99,324.2779 452.99,324.2779 473.615,324.2779" fill="none" id="back-memory" style="stroke:#93A0AE;stroke-width:1.6;stroke-dasharray:7,7;"/></g><!--link memory to docs--><g class="link" data-entity-1="ent0007" data-entity-2="ent0037" data-link-type="association" data-source-line="52" id="lnk38"><path d="M584.99,351.83 C584.99,351.8868 584.99,351.9439 584.99,352.0011 C584.99,352.1156 584.99,352.2308 584.99,352.3468 C584.99,356.0589 584.99,360.5385 584.99,364.8617 C584.99,373.5079 584.99,381.5279 584.99,381.5279 C584.99,381.5279 792.31,381.5279 924.32,381.5279" fill="none" id="memory-docs" style="stroke:#93A0AE;stroke-width:1.6;stroke-dasharray:7,7;"/></g><?plantuml-src RLJDRXCn4BxxAQPf9Lg99WsgE5MLIjj3KQkAWhXKFJZUIMBLQwziRqY5aBXovnrWdu0x-oOy2JFhtML3SqdisVdzlc-yewqoPOOm7a_QOvZ49UOurcLknCwsxyhbkRE7qaSzbog6v2gYZWRXP7PwT0o_Vy5D_UtczkhkycGoEuK_Nxy3hekwyXgjGc5m7Y4wy7gnZ91fZofgPuKef7gK2uJHfOs-hZ2CuBC0sBkoHHdFsehxA_IPLl4bZ3wc4s24kbBKKXWTFFStRa6-RrtfhJIGlS0rEPTSSPjtXae7-XOeve8SqmKAhmDkJQ-SZRZcTixJ2RaVQZAa2b-48CmAPz566DtKLUveuX7803dcpZ_1xlHuUlPgsipAM4YxC0p2Edf9hc0mm5ngcew36jGtFT-LqkYvHWz6Gg11LSgVZfk-D5Ea6_bIutD3MRdTp9KpGtCsOUd3iofd8JYbKs0_PqGQpLFvM5TDS6VOZ2Le0leLTqZ3oABmX8OEWTXEDJr6gUrcq1tQZCUNND5ATYVviAjtvKhE37QX9AmLCjAzWjuxugSNq6qPXvGzMlV9OBR0H5gVcX2BlbInJE8xs19Qo4ZODUgugwio11qnj09Seg9kM5oUnzkUe0UNxAby8i4wox71cN9x88b1ePnfydwYm0zUrZ_IjQw0DXEoNgr9TUsUmE7XQIiQseJ1hLTwOskrqdBRc7eg6_-XL_fhBF_4qfysWxj3OsrfJd-T9R7N7Hfhpz3GjSF-lqf3H8UT3G4JmZeIxCp5w79mytRrnBM4lDr8pjDej06phWpPcSKqCp73BBVmyBu5Cet5fI6bMkHYDioTpv7Q352IQVbKkBYiVmPQ50ihVlwOga9w23elA8xufbUHdavYOIn8xS1T2h7tXcHyhUtZ_emE1u9_wH7kcXwioFqzlSqXyXfDqjTndi65KoNtBZanwu8WD3GFFZmq6vCv4khkz6ZwUdeksaU8qhFvBm00?></g></svg>