<?plantuml 1.2026.2?><svg xmlns="http://www.w3.org/2000/svg" xmlns:xlink="http://www.w3.org/1999/xlink" contentStyleType="text/css" data-diagram-type="DESCRIPTION" height="467px" preserveAspectRatio="none" style="width:2950px;height:467px;background:#0B0F12;" version="1.1" viewBox="0 0 2950 467" width="2950px" zoomAndPan="magnify"><title>&lt;b&gt;01 &#183; PLANIFICATEUR&lt;/b&gt; &#8212; strat&#233;gie</title><defs/><g><rect fill="#0B0F12" height="467" style="stroke:none;stroke-width:1;" width="2950" x="0" y="0"/><g class="title" data-source-line="4"><text fill="#E7EBF0" font-family="monospace" font-size="14" font-weight="bold" lengthAdjust="spacing" textLength="138.5015" x="1356.7849" y="24.9659">01&#160;&#183;&#160;PLANIFICATEUR</text><text fill="#E7EBF0" font-family="monospace" font-size="14" font-weight="bold" lengthAdjust="spacing" textLength="80.4787" x="1498.9264" y="24.9659">&#8212;&#160;strat&#233;gie</text></g><!--cluster Entr?es--><g class="cluster" data-qualified-name="Entr.es" data-source-line="7" id="ent0002"><path d="M11,75.7779 L59.8323,75.7779 A7.5,7.5 0 0 1 64.8323,80.7779 L71.8323,100.8458 L273,100.8458 A5,5 0 0 1 278,105.8458 L278,397.7779 A5,5 0 0 1 273,402.7779 L11,402.7779 A5,5 0 0 1 6,397.7779 L6,80.7779 A5,5 0 0 1 11,75.7779" fill="#10161C" style="stroke:#303946;stroke-width:1.5;"/><line style="stroke:#303946;stroke-width:1.5;" x1="6" x2="71.8323" y1="100.8458" y2="100.8458"/><text fill="#E7EBF0" font-family="monospace" font-size="14" font-weight="bold" lengthAdjust="spacing" textLength="52.8323" x="10" y="92.7439">Entr&#233;es</text></g><!--cluster planner--><g class="cluster" data-qualified-name="planner" data-source-line="14" id="ent0007"><rect fill="#141A21" height="129" rx="5" ry="5" style="stroke:#303946;stroke-width:1;" width="2213.19" x="468" y="222.7779"/><rect fill="#141A21" height="10" style="stroke:#303946;stroke-width:1;" width="15" x="2661.19" y="227.7779"/><rect fill="#141A21" height="2" style="stroke:#303946;stroke-width:1;" width="4" x="2659.19" y="229.7779"/><rect fill="#141A21" height="2" style="stroke:#303946;stroke-width:1;" width="4" x="2659.19" y="233.7779"/><text fill="#E7EBF0" font-family="monospace" font-size="14" font-weight="bold" lengthAdjust="spacing" textLength="88.2732" x="1530.4584" y="250.7439">Planificateur</text></g><!--cluster Sorties--><g class="cluster" data-qualified-name="Sorties" data-source-line="24" id="ent0015"><path d="M2718.19,75.7779 L2762.4583,75.7779 A7.5,7.5 0 0 1 2767.4583,80.7779 L2774.4583,100.8458 L2938.19,100.8458 A5,5 0 0 1 2943.19,105.8458 L2943.19,397.7779 A5,5 0 0 1 2938.19,402.7779 L2718.19,402.7779 A5,5 0 0 1 2713.19,397.7779 L2713.19,80.7779 A5,5 0 0 1 2718.19,75.7779" fill="#10161C" style="stroke:#303946;stroke-width:1.5;"/><line style="stroke:#303946;stroke-width:1.5;" x1="2713.19" x2="2774.4583" y1="100.8458" y2="100.8458"/><text fill="#E7EBF0" font-family="monospace" font-size="14" font-weight="bold" lengthAdjust="spacing" textLength="48.2683" x="2717.19" y="92.7439">Sorties</text></g><!--entity objective--><g class="entity" data-qualified-name="Entr.es.objective" data-source-line="3" id="ent0003"><rect fill="#141A21" height="42.0679" rx="3" ry="3" style="stroke:#566170;stroke-width:0.5;" width="197.9993" x="43" y="344.7379"/><polygon fill="#141A21" points="223.9993,349.7379,223.9993,363.7379,235.9993,363.7379,235.9993,355.7379,229.9993,349.7379,223.9993,349.7379" style="stroke:#566170;stroke-width:0.5;"/><line style="stroke:#566170;stroke-width:0.5;" x1="229.9993" x2="229.9993" y1="349.7379" y2="355.7379"/><line style="stroke:#566170;stroke-width:0.5;" x1="235.9993" x2="229.9993" y1="355.7379" y2="355.7379"/><text fill="#E7EBF0" font-family="monospace" font-size="14" lengthAdjust="spacing" textLength="167.9993" x="53" y="372.7039">Objectif&#160;utilisateur</text></g><!--entity context--><g class="entity" data-qualified-name="Entr.es.context" data-source-line="3" id="ent0004"><rect fill="#141A21" height="42.0679" rx="3" ry="3" style="stroke:#566170;stroke-width:0.5;" width="181.1993" x="51.4" y="267.7379"/><polygon fill="#141A21" points="215.5993,272.7379,215.5993,286.7379,227.5993,286.7379,227.5993,278.7379,221.5993,272.7379,215.5993,272.7379" style="stroke:#566170;stroke-width:0.5;"/><line style="stroke:#566170;stroke-width:0.5;" x1="221.5993" x2="221.5993" y1="272.7379" y2="278.7379"/><line style="stroke:#566170;stroke-width:0.5;" x1="227.5993" x2="221.5993" y1="278.7379" y2="278.7379"/><text fill="#E7EBF0" font-family="monospace" font-size="14" lengthAdjust="spacing" textLength="151.1993" x="61.4" y="295.7039">Contexte&#160;du&#160;projet</text></g><!--entity constraints--><g class="entity" data-qualified-name="Entr.es.constraints" data-source-line="3" id="ent0005"><rect fill="#141A21" height="42.0679" rx="3" ry="3" style="stroke:#566170;stroke-width:0.5;" width="239.9991" x="22" y="190.7379"/><polygon fill="#141A21" points="244.9991,195.7379,244.9991,209.7379,256.9991,209.7379,256.9991,201.7379,250.9991,195.7379,244.9991,195.7379" style="stroke:#566170;stroke-width:0.5;"/><line style="stroke:#566170;stroke-width:0.5;" x1="250.9991" x2="250.9991" y1="195.7379" y2="201.7379"/><line style="stroke:#566170;stroke-width:0.5;" x1="256.9991" x2="250.9991" y1="201.7379" y2="201.7379"/><text fill="#E7EBF0" font-family="monospace" font-size="14" lengthAdjust="spacing" textLength="209.9991" x="32" y="218.7039">Contraintes&#160;et&#160;politiques</text></g><!--entity history--><g class="entity" data-qualified-name="Entr.es.history" data-source-line="3" id="ent0006"><rect fill="#141A21" height="42.0679" rx="3" ry="3" style="stroke:#566170;stroke-width:0.5;" width="223.1992" x="30.4" y="113.7379"/><polygon fill="#141A21" points="236.5992,118.7379,236.5992,132.7379,248.5992,132.7379,248.5992,124.7379,242.5992,118.7379,236.5992,118.7379" style="stroke:#566170;stroke-width:0.5;"/><line style="stroke:#566170;stroke-width:0.5;" x1="242.5992" x2="242.5992" y1="118.7379" y2="124.7379"/><line style="stroke:#566170;stroke-width:0.5;" x1="248.5992" x2="242.5992" y1="124.7379" y2="124.7379"/><text fill="#E7EBF0" font-family="monospace" font-size="14" lengthAdjust="spacing" textLength="193.1992" x="40.4" y="141.7039">Historique&#160;de&#160;la&#160;boucle</text></g><!--entity clarify--><g class="entity" data-qualified-name="planner.clarify" data-source-line="15" id="ent0008"><rect fill="#141A21" height="39.0679" rx="5" ry="5" style="stroke:#303946;stroke-width:0.5;" width="187.9993" x="492" y="269.2379"/><text fill="#E7EBF0" font-family="monospace" font-size="14" lengthAdjust="spacing" textLength="167.9993" x="502" y="294.2039">Clarifier&#160;l'objectif</text></g><!--entity success--><g class="entity" data-qualified-name="planner.success" data-source-line="16" id="ent0009"><rect fill="#141A21" height="39.0679" rx="5" ry="5" style="stroke:#303946;stroke-width:0.5;" width="271.9989" x="910" y="269.2379"/><text fill="#E7EBF0" font-family="monospace" font-size="14" lengthAdjust="spacing" textLength="251.9989" x="920" y="294.2039">D&#233;finir&#160;les&#160;crit&#232;res&#160;de&#160;succ&#232;s</text></g><!--entity decompose--><g class="entity" data-qualified-name="planner.decompose" data-source-line="17" id="ent0010"><rect fill="#141A21" height="39.0679" rx="5" ry="5" style="stroke:#303946;stroke-width:0.5;" width="204.7992" x="1242" y="269.2379"/><text fill="#E7EBF0" font-family="monospace" font-size="14" lengthAdjust="spacing" textLength="184.7992" x="1252" y="294.2039">D&#233;composer&#160;le&#160;probl&#232;me</text></g><!--entity dependencies--><g class="entity" data-qualified-name="planner.dependencies" data-source-line="18" id="ent0011"><rect fill="#141A21" height="39.0679" rx="5" ry="5" style="stroke:#303946;stroke-width:0.5;" width="238.399" x="1506.8" y="269.2379"/><text fill="#E7EBF0" font-family="monospace" font-size="14" lengthAdjust="spacing" textLength="218.399" x="1516.8" y="294.2039">Identifier&#160;les&#160;d&#233;pendances</text></g><!--entity risks--><g class="entity" data-qualified-name="planner.risks" data-source-line="19" id="ent0012"><rect fill="#141A21" height="39.0679" rx="5" ry="5" style="stroke:#303946;stroke-width:0.5;" width="255.199" x="1805.2" y="269.2379"/><text fill="#E7EBF0" font-family="monospace" font-size="14" lengthAdjust="spacing" textLength="235.199" x="1815.2" y="294.2039">&#201;valuer&#160;risques&#160;et&#160;inconnues</text></g><!--entity sequence--><g class="entity" data-qualified-name="planner.sequence" data-source-line="20" id="ent0013"><rect fill="#141A21" height="39.0679" rx="5" ry="5" style="stroke:#303946;stroke-width:0.5;" width="204.7992" x="2120.39" y="269.2379"/><text fill="#E7EBF0" font-family="monospace" font-size="14" lengthAdjust="spacing" textLength="184.7992" x="2130.39" y="294.2039">Ordonnancer&#160;les&#160;t&#226;ches</text></g><!--entity gates--><g class="entity" data-qualified-name="planner.gates" data-source-line="21" id="ent0014"><rect fill="#141A21" height="39.0679" rx="5" ry="5" style="stroke:#303946;stroke-width:0.5;" width="271.9989" x="2385.19" y="269.2379"/><text fill="#E7EBF0" font-family="monospace" font-size="14" lengthAdjust="spacing" textLength="251.9989" x="2395.19" y="294.2039">D&#233;finir&#160;les&#160;points&#160;de&#160;contr&#244;le</text></g><!--entity plan--><g class="entity" data-qualified-name="Sorties.plan" data-source-line="7" id="ent0016"><rect fill="#141A21" height="42.0679" rx="3" ry="3" style="stroke:#566170;stroke-width:0.5;" width="164.3994" x="2745.99" y="190.7379"/><polygon fill="#141A21" points="2893.3894,195.7379,2893.3894,209.7379,2905.3894,209.7379,2905.3894,201.7379,2899.3894,195.7379,2893.3894,195.7379" style="stroke:#566170;stroke-width:0.5;"/><line style="stroke:#566170;stroke-width:0.5;" x1="2899.3894" x2="2899.3894" y1="195.7379" y2="201.7379"/><line style="stroke:#566170;stroke-width:0.5;" x1="2905.3894" x2="2899.3894" y1="201.7379" y2="201.7379"/><text fill="#E7EBF0" font-family="monospace" font-size="14" lengthAdjust="spacing" textLength="134.3994" x="2755.99" y="218.7039">Plan&#160;d'ex&#233;cution</text></g><!--entity criteria--><g class="entity" data-qualified-name="Sorties.criteria" data-source-line="7" id="ent0017"><rect fill="#141A21" height="42.0679" rx="3" ry="3" style="stroke:#566170;stroke-width:0.5;" width="181.1993" x="2737.59" y="344.7379"/><polygon fill="#141A21" points="2901.7893,349.7379,2901.7893,363.7379,2913.7893,363.7379,2913.7893,355.7379,2907.7893,349.7379,2901.7893,349.7379" style="stroke:#566170;stroke-width:0.5;"/><line style="stroke:#566170;stroke-width:0.5;" x1="2907.7893" x2="2907.7893" y1="349.7379" y2="355.7379"/><line style="stroke:#566170;stroke-width:0.5;" x1="2913.7893" x2="2907.7893" y1="355.7379" y2="355.7379"/><text fill="#E7EBF0" font-family="monospace" font-size="14" lengthAdjust="spacing" textLength="151.1993" x="2747.59" y="372.7039">Crit&#232;res&#160;de&#160;succ&#232;s</text></g><!--entity riskRegister--><g class="entity" data-qualified-name="Sorties.riskRegister" data-source-line="7" id="ent0018"><rect fill="#141A21" height="42.0679" rx="3" ry="3" style="stroke:#566170;stroke-width:0.5;" width="197.9993" x="2729.19" y="113.7379"/><polygon fill="#141A21" points="2910.1893,118.7379,2910.1893,132.7379,2922.1893,132.7379,2922.1893,124.7379,2916.1893,118.7379,2910.1893,118.7379" style="stroke:#566170;stroke-width:0.5;"/><line style="stroke:#566170;stroke-width:0.5;" x1="2916.1893" x2="2916.1893" y1="118.7379" y2="124.7379"/><line style="stroke:#566170;stroke-width:0.5;" x1="2922.1893" x2="2916.1893" y1="124.7379" y2="124.7379"/><text fill="#E7EBF0" font-family="monospace" font-size="14" lengthAdjust="spacing" textLength="167.9993" x="2739.19" y="141.7039">Registre&#160;des&#160;risques</text></g><!--entity checkpoints--><g class="entity" data-qualified-name="Sorties.checkpoints" data-source-line="7" id="ent0019"><rect fill="#141A21" height="42.0679" rx="3" ry="3" style="stroke:#566170;stroke-width:0.5;" width="181.1993" x="2737.59" y="267.7379"/><polygon fill="#141A21" points="2901.7893,272.7379,2901.7893,286.7379,2913.7893,286.7379,2913.7893,278.7379,2907.7893,272.7379,2901.7893,272.7379" style="stroke:#566170;stroke-width:0.5;"/><line style="stroke:#566170;stroke-width:0.5;" x1="2907.7893" x2="2907.7893" y1="272.7379" y2="278.7379"/><line style="stroke:#566170;stroke-width:0.5;" x1="2913.7893" x2="2907.7893" y1="278.7379" y2="278.7379"/><text fill="#E7EBF0" font-family="monospace" font-size="14" lengthAdjust="spacing" textLength="151.1993" x="2747.59" y="295.7039">Points&#160;de&#160;contr&#244;le</text></g><g class="entity" data-qualified-name="GMN34" data-source-line="47" id="ent0035"><path d="M322,51.0679 L322,86.4799 A5,5 0 0 0 327,91.4799 L844.9997,91.4799 A5,5 0 0 0 849.9997,86.4799 L849.9997,56.0679 L839.9997,46.0679 L327,46.0679 A5,5 0 0 0 322,51.0679" fill="#151B22" style="stroke:#3D4754;stroke-width:0.5;"/><path d="M839.9997,46.0679 L839.9997,53.5679 A2.5,2.5 0 0 0 842.4997,56.0679 L849.9997,56.0679 L839.9997,46.0679" fill="#151B22" style="stroke:#3D4754;stroke-width:1;"/><text fill="#C8D0D9" font-family="monospace" font-size="13" lengthAdjust="spacing" textLength="428.9998" x="328" y="64.9649">Le&#160;planificateur&#160;ne&#160;r&#233;alise&#160;pas&#160;directement&#160;le&#160;travail.</text><text fill="#C8D0D9" font-family="monospace" font-size="13" lengthAdjust="spacing" textLength="506.9997" x="328" y="82.6709">Il&#160;produit&#160;un&#160;plan&#160;testable,&#160;r&#233;visable&#160;et&#160;proportionn&#233;&#160;au&#160;risque.</text></g><!--entity back--><g class="entity" data-qualified-name="back" data-source-line="15" id="ent0037"><rect fill="#10161C" height="39.0679" rx="5" ry="5" style="stroke:#303946;stroke-width:0.5;" width="238.399" x="22.8" y="422.2379"/><a href="index.svg" target="_top" title="index.svg" xlink:actuate="onRequest" xlink:href="index.svg" xlink:show="new" xlink:title="index.svg" xlink:type="simple"><text fill="#0000FF" font-family="monospace" font-size="14" lengthAdjust="spacing" text-decoration="underline" textLength="218.399" x="32.8" y="447.2039">Retour&#160;&#224;&#160;la&#160;boucle&#160;globale</text></a></g><!--entity docs--><g class="entity" data-qualified-name="docs" data-source-line="53" id="ent0039"><rect fill="#10161C" height="39.0679" rx="5" ry="5" style="stroke:#303946;stroke-width:0.5;" width="213.1992" x="939.4" y="376.2379"/><a href="../stages/planner.md" target="_top" title="../stages/planner.md" xlink:actuate="onRequest" xlink:href="../stages/planner.md" xlink:show="new" xlink:title="../stages/planner.md" xlink:type="simple"><text fill="#0000FF" font-family="monospace" font-size="14" lengthAdjust="spacing" text-decoration="underline" textLength="193.1992" x="949.4" y="401.2039">Documentation&#160;d&#233;taill&#233;e</text></a></g><!--link objective to clarify--><g class="link" data-entity-1="ent0003" data-entity-2="ent0008" data-link-type="dependency" data-source-line="31" id="lnk20"><path d="M237.19,344.2379 C237.19,323.5079 237.19,295.2879 237.19,295.2879 C237.19,295.2879 382.31,295.2879 485.61,295.2879" fill="none" id="objective-to-clarify" style="stroke:#93A0AE;stroke-width:1.6;"/><polygon fill="#93A0AE" points="491.61,295.2879,482.61,291.2879,486.61,295.2879,482.61,299.2879,491.61,295.2879" style="stroke:#93A0AE;stroke-width:1.6;"/></g><!--link context to clarify--><g class="link" data-entity-1="ent0004" data-entity-2="ent0008" data-link-type="dependency" data-source-line="32" id="lnk21"><path d="M232.92,282.2579 C308.4,282.2579 409.37,282.2579 485.75,282.2579" fill="none" id="context-to-clarify" style="stroke:#93A0AE;stroke-width:1.6;"/><polygon fill="#93A0AE" points="491.75,282.2579,482.75,278.2579,486.75,282.2579,482.75,286.2579,491.75,282.2579" style="stroke:#93A0AE;stroke-width:1.6;"/></g><!--link constraints to success--><g class="link" data-entity-1="ent0005" data-entity-2="ent0009" data-link-type="dependency" data-source-line="33" id="lnk22"><path d="M262.07,218.7879 C508.03,218.7879 1046.19,218.7879 1046.19,218.7879 C1046.19,218.7879 1046.19,242.2179 1046.19,262.9079" fill="none" id="constraints-to-success" style="stroke:#93A0AE;stroke-width:1.6;"/><polygon fill="#93A0AE" points="1046.19,268.9079,1050.19,259.9079,1046.19,263.9079,1042.19,259.9079,1046.19,268.9079" style="stroke:#93A0AE;stroke-width:1.6;"/></g><!--link history to decompose--><g class="link" data-entity-1="ent0006" data-entity-2="ent0010" data-link-type="dependency" data-source-line="34" id="lnk23"><path d="M254.02,141.7879 C552.46,141.7879 1344.19,141.7879 1344.19,141.7879 C1344.19,141.7879 1344.19,222.8279 1344.19,262.9479" fill="none" id="history-to-decompose" style="stroke:#93A0AE;stroke-width:1.6;"/><polygon fill="#93A0AE" points="1344.19,268.9479,1348.19,259.9479,1344.19,263.9479,1340.19,259.9479,1344.19,268.9479" style="stroke:#93A0AE;stroke-width:1.6;"/></g><!--link clarify to success--><g class="link" data-entity-1="ent0008" data-entity-2="ent0009" data-link-type="dependency" data-source-line="35" id="lnk24"><path d="M680.47,288.7779 C746.6,288.7779 829.96,288.7779 903.77,288.7779" fill="none" id="clarify-to-success" style="stroke:#93A0AE;stroke-width:1.6;"/><polygon fill="#93A0AE" points="909.77,288.7779,900.77,284.7779,904.77,288.7779,900.77,292.7779,909.77,288.7779" style="stroke:#93A0AE;stroke-width:1.6;"/></g><!--link success to decompose--><g class="link" data-entity-1="ent0009" data-entity-2="ent0010" data-link-type="dependency" data-source-line="36" id="lnk25"><path d="M1182.1,288.7779 C1202.08,288.7779 1216.38,288.7779 1235.55,288.7779" fill="none" id="success-to-decompose" style="stroke:#93A0AE;stroke-width:1.6;"/><polygon fill="#93A0AE" points="1241.55,288.7779,1232.55,284.7779,1236.55,288.7779,1232.55,292.7779,1241.55,288.7779" style="stroke:#93A0AE;stroke-width:1.6;"/></g><!--link decompose to dependencies--><g class="link" data-entity-1="ent0010" data-entity-2="ent0011" data-link-type="dependency" data-source-line="37" id="lnk26"><path d="M1447.26,288.7779 C1466.58,288.7779 1480.94,288.7779 1500.71,288.7779" fill="none" id="decompose-to-dependencies" style="stroke:#93A0AE;stroke-width:1.6;"/><polygon fill="#93A0AE" points="1506.71,288.7779,1497.71,284.7779,1501.71,288.7779,1497.71,292.7779,1506.71,288.7779" style="stroke:#93A0AE;stroke-width:1.6;"/></g><!--link dependencies to risks--><g class="link" data-entity-1="ent0011" data-entity-2="ent0012" data-link-type="dependency" data-source-line="38" id="lnk27"><path d="M1745.49,288.7779 C1764.92,288.7779 1779.12,288.7779 1798.75,288.7779" fill="none" id="dependencies-to-risks" style="stroke:#93A0AE;stroke-width:1.6;"/><polygon fill="#93A0AE" points="1804.75,288.7779,1795.75,284.7779,1799.75,288.7779,1795.75,292.7779,1804.75,288.7779" style="stroke:#93A0AE;stroke-width:1.6;"/></g><!--link risks to sequence--><g class="link" data-entity-1="ent0012" data-entity-2="ent0013" data-link-type="dependency" data-source-line="39" id="lnk28"><path d="M2060.84,288.7779 C2080.71,288.7779 2095.02,288.7779 2114.24,288.7779" fill="none" id="risks-to-sequence" style="stroke:#93A0AE;stroke-width:1.6;"/><polygon fill="#93A0AE" points="2120.24,288.7779,2111.24,284.7779,2115.24,288.7779,2111.24,292.7779,2120.24,288.7779" style="stroke:#93A0AE;stroke-width:1.6;"/></g><!--link sequence to gates--><g class="link" data-entity-1="ent0013" data-entity-2="ent0014" data-link-type="dependency" data-source-line="40" id="lnk29"><path d="M2325.49,288.7779 C2344.62,288.7779 2358.89,288.7779 2378.85,288.7779" fill="none" id="sequence-to-gates" style="stroke:#93A0AE;stroke-width:1.6;"/><polygon fill="#93A0AE" points="2384.85,288.7779,2375.85,284.7779,2379.85,288.7779,2375.85,292.7779,2384.85,288.7779" style="stroke:#93A0AE;stroke-width:1.6;"/></g><!--link sequence to plan--><g class="link" data-entity-1="ent0013" data-entity-2="ent0016" data-link-type="dependency" data-source-line="41" id="lnk30"><path d="M2223.19,268.8679 C2223.19,244.0179 2223.19,204.7579 2223.19,204.7579 C2223.19,204.7579 2574.1,204.7579 2739.65,204.7579" fill="none" id="sequence-to-plan" style="stroke:#93A0AE;stroke-width:1.6;"/><polygon fill="#93A0AE" points="2745.65,204.7579,2736.65,200.7579,2740.65,204.7579,2736.65,208.7579,2745.65,204.7579" style="stroke:#93A0AE;stroke-width:1.6;"/></g><!--link success to criteria--><g class="link" data-entity-1="ent0009" data-entity-2="ent0017" data-link-type="dependency" data-source-line="42" id="lnk31"><path d="M1167.19,308.6679 C1167.19,324.7579 1167.19,344.7579 1167.19,344.7579 C1167.19,344.7579 2383.7,344.7579 2731.12,344.7579" fill="none" id="success-to-criteria" style="stroke:#93A0AE;stroke-width:1.6;"/><polygon fill="#93A0AE" points="2737.12,344.7579,2728.12,340.7579,2732.12,344.7579,2728.12,348.7579,2737.12,344.7579" style="stroke:#93A0AE;stroke-width:1.6;"/></g><!--link risks to riskRegister--><g class="link" data-entity-1="ent0012" data-entity-2="ent0018" data-link-type="dependency" data-source-line="43" id="lnk32"><path d="M1933.19,269.0279 C1933.19,226.0379 1933.19,127.7579 1933.19,127.7579 C1933.19,127.7579 2489.97,127.7579 2722.99,127.7579" fill="none" id="risks-to-riskRegister" style="stroke:#93A0AE;stroke-width:1.6;"/><polygon fill="#93A0AE" points="2728.99,127.7579,2719.99,123.7579,2723.99,127.7579,2719.99,131.7579,2728.99,127.7579" style="stroke:#93A0AE;stroke-width:1.6;"/></g><!--link gates to checkpoints--><g class="link" data-entity-1="ent0014" data-entity-2="ent0019" data-link-type="dependency" data-source-line="44" id="lnk33"><path d="M2657.64,288.7779 C2684.54,288.7779 2706.15,288.7779 2731.11,288.7779" fill="none" id="gates-to-checkpoints" style="stroke:#93A0AE;stroke-width:1.6;"/><polygon fill="#93A0AE" points="2737.11,288.7779,2728.11,284.7779,2732.11,288.7779,2728.11,292.7779,2737.11,288.7779" style="stroke:#93A0AE;stroke-width:1.6;"/></g><!--link planner to GMN34--><g class="link" data-entity-1="ent0007" data-entity-2="ent0035" data-link-type="association" data-source-line="47" id="lnk36"><path d="M765.19,221.6961 C765.19,214.6699 765.19,207.5893 765.19,200.5289 C765.19,186.4081 765.19,172.3682 765.19,159.0062 C765.19,132.2823 765.19,108.2704 765.19,91.7479" fill="none" id="planner-GMN34" style="stroke:#93A0AE;stroke-width:1.6;stroke-dasharray:7,7;"/></g><!--link back to planner--><g class="link" data-entity-1="ent0037" data-entity-2="ent0007" data-link-type="association" data-source-line="52" id="lnk38"><path d="M251.19,422.1379 C251.19,393.7879 251.19,344.7579 251.19,344.7579 C251.19,344.7579 333.59,344.7579 416.6338,344.7579 C427.0142,344.7579 437.4047,344.7579 447.6457,344.7579 C452.7661,344.7579 457.8492,344.7579 462.8748,344.7579 C464.1313,344.7579 465.3841,344.7579 466.633,344.7579" fill="none" id="back-planner" style="stroke:#93A0AE;stroke-width:1.6;stroke-dasharray:7,7;"/></g><!--link planner to docs--><g class="link" data-entity-1="ent0007" data-entity-2="ent0039" data-link-type="association" data-source-line="54" id="lnk40"><path d="M586.19,351.8214 C586.19,351.8783 586.19,351.9353 586.19,351.9926 C586.19,352.1071 586.19,352.2224 586.19,352.3384 C586.19,356.0514 586.19,360.5323 586.19,364.8567 C586.19,373.5054 586.19,381.5279 586.19,381.5279 C586.19,381.5279 803.21,381.5279 939.06,381.5279" fill="none" id="planner-docs" style="stroke:#93A0AE;stroke-width:1.6;stroke-dasharray:7,7;"/></g><?plantuml-src VLJDRXCn4BxxAOPGgQtKfWr2dAfA8IqYKaMh0gUg1ySxITmuzkAVgXL2uigT9-3Kt96uis_2ap3ZtQH96hWai-FvFEDllfbdsYgJ2eHs-w0nmq4SunJREasDUBRfNBdfrDbzwQCUIXL37IgYZWRXQ71ys87Vl-3YhFkk_wRVwtuu_NXvT30uXZzVlqE8NiPgDj8e30uZH0TUZyOH2krHHUsi4ALK4pb2Q9tQwAiPXXPy5W1RVLkcs6soxhZ13GDkSGzQvxKzX1IrqK56JBwr-nIZd8ru5mdHgos48a7ftGt6VyHpmTh6q63o1mR02AKpEkfFYUhR01th49s_9zZRR74W4956mi0bPP10NuGWBajdqKPeNHXfzL2hkdgG0KhoMFJmlFEoqttHoImmIzAEYEbMpqXF00emsmqRmunJ-U1-DVgacWsrrHHCvIklO_NWoQAIGbAgUWWPoZQ6y0IQwmoS2fclWQaUffWH1JPdgvX-GOzggkCqrQn4MqYhC3Gm_aQhDAvbgxxTIfC8vtLWTfbhqfwpDZLOEfYiWSvzGG5yVPqlLZ_Kk0aFIDVGoN_uA1ttcCbWYVZgfwaVDw9c1ExJGfFl7NLu8Sdp59URpWtRgpi9nJRU4M-9DLqBP2sOUu1UIrRMfdPiml3BBt54Ya9FkDhqBAmmfsjphZ6gIVr8hc_3QxCQ5pC5-_l72narKxFkcqz6zizrqyW--nwLqQ1M8fl_jSY5rVYNHBByaKzh6UJV-kPvd-T6zjOjN75ncrRoprknTDaoqoBVKKS-4Yc4TRH01Yv6DmKtd8-hECDiBcOPB0BjCKcRYKvO-tdNqPAbiISf4e-tKfksw1kUhIBf2CdcEu3oHZamjEJeXbjQRMJdvUDToKeaqLSpaAdfVbiGHS1r2R7rcZHxfkraPq36hk1VskEBCfTcuUgAzZib6j5sRuxRqm9Ed4fSfEGyFCAHoZIqaQ-lwnbsAj1oEkoywlJ4V5bH1lR_1G00?></g></svg>